<svg xmlns="http://www.w3.org/2000/svg" id="svg2" viewBox="0 0 199.64 156.24" version="1.0"><defs id="defs4"><linearGradient id="linearGradient3406" y2="839.68" gradientUnits="userSpaceOnUse" x2="351.34" gradientTransform="translate(0 2)" y1="891.12" x1="351.09"><stop id="stop2429" offset="0" stop-color="#000"/><stop id="stop2431" offset="1" stop-color="#000" stop-opacity="0"/></linearGradient><linearGradient id="linearGradient2454" y2="1204.3" gradientUnits="userSpaceOnUse" x2="-822.53" gradientTransform="matrix(1.0538 0 .73694 .71478 -1.05 -.014)" y1="1202.5" x1="-819.27"><stop id="stop2420" offset="0" stop-color="#b3b3b3"/><stop id="stop2422" offset="1" stop-color="#b3b3b3" stop-opacity="0"/></linearGradient><linearGradient id="linearGradient2459" y2="365.36" gradientUnits="userSpaceOnUse" x2="327.29" gradientTransform="matrix(.01706 -.01706 .01706 .01706 11.064 855.46)" y1="464.45" x1="327.29"><stop id="stop3267" offset="0" stop-color="#666"/><stop id="stop3269" offset="1" stop-color="#666" stop-opacity=".537"/></linearGradient><linearGradient id="linearGradient2463" y2="686.65" gradientUnits="userSpaceOnUse" x2="422.86" gradientTransform="matrix(.01706 -.01706 .01706 .01706 11.064 855.46)" y1="686.65" x1="301.43"><stop id="stop2408" offset="0" stop-color="#562200"/><stop id="stop2410" offset="1" stop-color="#b44700"/></linearGradient><filter id="filter3261"><feGaussianBlur id="feGaussianBlur3263" stdDeviation="1.021"/></filter></defs><g id="layer1" transform="translate(-19.042 -873.46)"><g id="g2475" transform="translate(-216.93 -9799.4) scale(12.512)" fill-rule="evenodd"><g id="g2466"><path id="path2393" d="M18.91 859.36c.639.64 1.278 1.27 1.916 1.91.346.05.688.15 1.034.17.785-.71 1.527-1.5 2.279-2.25 2.106 2.11 4.212 4.21 6.318 6.32.454.08.849-.23 1.191-.48.601-.48 1.166-1.07 1.431-1.8.064-.18.043-.41-.136-.52-2.054-2.05-4.108-4.11-6.162-6.16l2.846-2.85c-.243-.21-.441-.48-.707-.66l-5.013 1.09-5.013 5.01c-.034.07-.062.13.016.22z" fill="#000"/><path id="rect2386" d="M24.23 859.08l2.437-2.44 6.297 6.3c.092.76-1.77 2.59-2.437 2.43l-6.297-6.29z" fill="url(#linearGradient2463)"/><path id="path2389" d="M19.751 859.24l4.971-4.97 4.192-1.07.507.51-7.604 7.6-2.066-2.07z" fill="url(#linearGradient2459)"/><path id="path2391" d="M421.43 724.51a70 12.143 0 11-140 0 70 12.143 0 11140 0z" transform="matrix(.0139 -.01421 .0139 .01421 7.96 850.3)" fill="#803300"/><path id="path2414" transform="matrix(.01706 -.01706 .01706 .01706 11.064 855.46)" d="M280 820.06v42.88c15.04 24.08 123.22 25.02 142.84 0v-42.88c-27.2 24.69-126.89 19.29-142.84 0z" filter="url(#filter3261)" fill="url(#linearGradient3406)"/><path id="rect2413" d="M18.945 859.31c-.041-.06-.015-.08.016-.1l.788.03 2.071 2.07-.924-.12-1.951-1.88z" fill="url(#linearGradient2454)"/><path id="path3432" d="M28.875 853.34c-1.385.36-2.769.71-4.154 1.06-1.562 1.64-3.194 3.21-4.783 4.82.833-.33 1.234-1.21 1.936-1.71.992-.98 1.987-1.96 2.97-2.95 1.281-.46 2.628-.71 3.921-1.13a.331.331 0 00.11-.09z" fill-opacity=".763" fill="#fff"/></g><g id="g2445" transform="translate(-18.305 .678)"><path id="path2443" d="M31.375 1.031a2.023 2.023 0 00-1.25.25c-.681.393-.997 1.165-.969 2.031v.032c-.019.244.045.479.063.656.018.185.018.3-.188.438l-6.406 6.218a.16.16 0 00-.031 0c-.325.325-.341.84-.094 1.219.002.015-.009.011 0 .031.05.117.12.245.219.344a.16.16 0 00.031 0l.656.625c.387.387.998.408 1.375.031a.16.16 0 000-.031l5.907-6.188c.116-.148.195-.202.25-.218.054-.016.096-.01.187.031.182.081.473.298.937.375.409.041.85-.006 1.219-.219.538-.31.841-.857.938-1.5.008-.056.005-.065 0-.031.043-.204.048-.396.031-.625a.163.163 0 000-.031.162.162 0 00-.031-.063.187.187 0 00-.031-.031.171.171 0 00-.032 0l-.375-.188a.156.156 0 00-.031-.03.16.16 0 00-.031 0 .16.16 0 00-.031 0 .171.171 0 00-.032 0l-1.531.624-1-1.781 1.563-1.031a.187.187 0 00.031-.032.162.162 0 00.031-.062.163.163 0 000-.031.164.164 0 000-.032.164.164 0 000-.03.155.155 0 00-.031-.032l-.094-.156a.153.153 0 00-.031-.032c-.385-.275-.792-.474-1.219-.53z" transform="translate(18.862 851.58)" fill="#000"/><path id="path2436" d="M51.366 853.26c-.739-.53-1.606-.67-2.278-.28-.629.36-.943 1.11-.907 1.94-.046.42.292.9-.205 1.23l-6.408 6.21c-.317.32-.304.84.029 1.17l.655.66c.333.33.856.34 1.172.03l5.912-6.21c.508-.64.661 0 1.519.14.39.04.768-.01 1.101-.2.653-.38 1.066-1 1.002-1.88l-.366-.19-1.65.67-1.142-2.02 1.666-1.11-.1-.16z" fill="#4d4d4d"/><path id="path3287" d="M51.466 853.42c-.739-.53-1.605-.67-2.277-.28-.63.36-.943 1.11-.907 1.94-.047.42.291.9-.206 1.23l-6.408 6.21c-.317.32-.303.84.029 1.17l.655.66c.333.33.856.34 1.172.03l5.912-6.21c.508-.64.661 0 1.519.14.39.04.769-.01 1.101-.2.653-.38.966-1.16.902-2.04l-1.866.92-1.382-2.4 1.756-1.17z" fill="#ccc"/><path id="rect3210" d="M43.505 861.84a6.58 6.58 0 00-.735.83c-.413.54-.411.76-.259.9.146.14.387.21.915-.17.285-.21.598-.47.91-.78l4.445-4.38c.152-.15.275-.29.404-.44.054-.15-.004-.19-.142-.14l-4.471 4.41c-.891.87-1.732 1.46-1.871 1.33-.14-.13.474-.96 1.365-1.84l4.487-4.39c.087-.13-.016-.21-.127-.13-.153.13-.301.27-.46.43l-4.461 4.37z" fill="gray"/><path id="path2620" d="M41.375 830.94a8.311 8.311 0 00-1.937.12c-.878.16-1.66.47-2.469.94-2.989 1.73-4.581 5.2-4.407 9.25a.3.3 0 010 .06c-.102.91.221 2.04.313 3.19s-.133 2.39-1.469 3.28v-.03L-.406 878.56c-.69.69-.958 1.61-.938 2.53l32.875-31.71c2.332-2.26 1.985-5.13 1.907-7.1-.17-4.32.637-7.54 2.781-9.22 2.112-1.65 5.392-1.64 9.97.22l.655-.4c-1.789-1.1-3.665-1.83-5.469-1.94z" transform="translate(41.791 685.58) scale(.20146)" opacity=".8" fill="#fff"/></g></g></g></svg>