<svg xmlns="http://www.w3.org/2000/svg" id="svg3973" viewBox="0 0 399.72 83.753" version="1.0"><g id="layer1" transform="translate(-330.87 -462.97)"><g id="g3953" stroke="#000" transform="matrix(4.4799 0 0 2.9866 -22.373 -404.56)"><path id="rect2953" stroke-width="1.5" fill="#fff" d="M79.463 291.39h88.002v26.206H79.463z"/><g id="g3915" transform="matrix(1 0 0 .76435 .787 68.514)"><path id="rect3725" stroke-width=".262" d="M81.923 291.14h1.869v19.539h-1.869z"/><path id="rect3727" stroke-width=".188" d="M92.505 291.1h1.942v9.712h-1.942z"/><path id="rect3729" stroke-width=".188" d="M87.196 291.1h1.942v9.712h-1.942z"/><path id="rect3731" stroke-width=".188" d="M97.814 291.1h1.942v9.712h-1.942z"/><path id="rect3733" stroke-width=".188" d="M103.12 291.1h1.942v9.712h-1.942z"/><path id="rect3765" stroke-width=".262" d="M108.47 291.14h1.869v19.539h-1.869z"/><path id="rect3767" stroke-width=".188" d="M119.05 291.1h1.942v9.712h-1.942z"/><path id="rect3769" stroke-width=".188" d="M113.74 291.1h1.942v9.712h-1.942z"/><path id="rect3771" stroke-width=".188" d="M124.36 291.1h1.942v9.712h-1.942z"/><path id="rect3773" stroke-width=".188" d="M129.67 291.1h1.942v9.712h-1.942z"/><path id="rect3779" stroke-width=".262" d="M135.01 291.14h1.869v19.539h-1.869z"/><path id="rect3781" stroke-width=".188" d="M145.6 291.1h1.942v9.712H145.6z"/><path id="rect3783" stroke-width=".188" d="M140.29 291.1h1.942v9.712h-1.942z"/><path id="rect3785" stroke-width=".188" d="M150.91 291.1h1.942v9.712h-1.942z"/><path id="rect3787" stroke-width=".188" d="M156.21 291.1h1.942v9.712h-1.942z"/><path id="rect3907" stroke-width=".262" d="M161.56 291.14h1.869v19.539h-1.869z"/></g></g></g></svg>